<svg width="42" height="41" viewBox="0 0 42 41" fill="none" xmlns="http://www.w3.org/2000/svg">
<g clip-path="url(#clip0_4_19071)">
<path d="M33.7201 7.03323H8.40543V30.0412H33.7201V7.03323Z" fill="white"/>
<path fill-rule="evenodd" clip-rule="evenodd" d="M41.5628 20.5C41.5628 31.8069 32.3908 40.9728 21.0764 40.9728C9.76211 40.9728 0.590057 31.8069 0.590057 20.5C0.590057 9.19321 9.76211 0.0272522 21.0764 0.0272522C32.3908 0.0272522 41.5628 9.19321 41.5628 20.5ZM15.2712 28.6471H11.2953C10.4599 28.6471 10.0472 28.6471 9.79561 28.4863C9.52383 28.3102 9.35776 28.0185 9.33763 27.6965C9.32251 27.4 9.52888 27.0377 9.94155 26.3135L19.7584 9.0215C20.1761 8.2872 20.3874 7.92006 20.6542 7.78427C20.941 7.63843 21.2833 7.63843 21.5701 7.78427C21.8369 7.92006 22.0483 8.2872 22.4659 9.0215L24.4841 12.542L24.4944 12.56C24.9455 13.3478 25.1743 13.7472 25.2742 14.1665C25.3849 14.6242 25.3849 15.107 25.2742 15.5647C25.1736 15.9871 24.9471 16.3895 24.4891 17.1892L19.3326 26.2984L19.3192 26.3217C18.8651 27.116 18.6349 27.5185 18.316 27.8222C17.9687 28.1543 17.551 28.3955 17.093 28.5315C16.6753 28.6471 16.2073 28.6471 15.2712 28.6471ZM25.3115 28.6471H31.0084C31.8488 28.6471 32.2716 28.6471 32.5234 28.4814C32.7951 28.3053 32.9662 28.0084 32.9814 27.6867C32.9959 27.3997 32.794 27.0516 32.3985 26.3694C32.3848 26.3462 32.3712 26.3226 32.3573 26.2985L29.5037 21.4201L29.4712 21.3651C29.0702 20.6875 28.8678 20.3453 28.6078 20.213C28.3211 20.0671 27.9837 20.0671 27.697 20.213C27.4352 20.3488 27.2239 20.7059 26.8062 21.4251L23.9627 26.3036L23.9529 26.3203C23.5367 27.0384 23.3287 27.3972 23.3437 27.6916C23.3638 28.0136 23.5299 28.3102 23.8016 28.4863C24.0483 28.6471 24.471 28.6471 25.3115 28.6471Z" fill="#E84142"/>
</g>
<defs>
<clipPath id="clip0_4_19071">
<rect width="41" height="41" fill="white" transform="translate(0.576416)"/>
</clipPath>
</defs>
</svg>
