<svg width="52" height="45" viewBox="0 0 52 45" fill="none" xmlns="http://www.w3.org/2000/svg">
<g clip-path="url(#clip0_4_19066)">
<path d="M39.1585 13.7015C38.216 13.1642 37.0043 13.1642 35.9271 13.7015L28.3872 18.1343L23.2709 20.9552L15.8656 25.388C14.9232 25.9254 13.7114 25.9254 12.6343 25.388L6.84471 21.8955C5.90223 21.3582 5.22902 20.2836 5.22902 19.0746V12.3582C5.22902 11.2836 5.76759 10.2089 6.84471 9.5373L12.6343 6.17909C13.5768 5.64178 14.7885 5.64178 15.8656 6.17909L21.6552 9.67163C22.5977 10.2089 23.2709 11.2836 23.2709 12.4925V16.9254L28.3872 13.9701V9.40297C28.3872 8.32835 27.8487 7.25372 26.7716 6.58208L16.0003 0.268647C15.0578 -0.268667 13.846 -0.268667 12.7689 0.268647L1.72836 6.71641C0.651234 7.25372 0.112671 8.32835 0.112671 9.40297V22.0298C0.112671 23.1045 0.651234 24.1791 1.72836 24.8507L12.6343 31.1642C13.5768 31.7015 14.7885 31.7015 15.8656 31.1642L23.2709 26.8657L28.3872 23.9104L35.7925 19.6119C36.735 19.0746 37.9467 19.0746 39.0239 19.6119L44.8134 22.9701C45.7559 23.5075 46.4291 24.5821 46.4291 25.791V32.5075C46.4291 33.5821 45.8906 34.6567 44.8134 35.3283L39.1585 38.6866C38.216 39.2239 37.0043 39.2239 35.9271 38.6866L30.1376 35.3283C29.1951 34.791 28.5219 33.7164 28.5219 32.5075V28.2089L23.4055 31.1642V35.597C23.4055 36.6716 23.9441 37.7463 25.0212 38.4179L35.9271 44.7313C36.8696 45.2686 38.0814 45.2686 39.1585 44.7313L50.0644 38.4179C51.0069 37.8806 51.6801 36.806 51.6801 35.597V22.8358C51.6801 21.7612 51.1415 20.6866 50.0644 20.0149L39.1585 13.7015Z" fill="#A875FF"/>
</g>
<defs>
<clipPath id="clip0_4_19066">
<rect width="51.7021" height="45" fill="white" transform="translate(0.112671)"/>
</clipPath>
</defs>
</svg>
