<svg width="389" height="233" viewBox="0 0 389 233" fill="none" xmlns="http://www.w3.org/2000/svg">
<mask id="path-1-outside-1_107_4621" maskUnits="userSpaceOnUse" x="0" y="0" width="389" height="233" fill="black">
<rect fill="white" width="389" height="233"/>
<path fill-rule="evenodd" clip-rule="evenodd" d="M111.32 55.1063C124.15 55.1063 134.259 44.5344 140.105 33.1138C149.829 14.1161 170.531 1 194.5 1C218.469 1 239.171 14.1161 248.895 33.1138C254.741 44.5344 264.85 55.1063 277.68 55.1063H364C377.255 55.1063 388 65.8515 388 79.1063V207.196C388 220.451 377.255 231.196 364 231.196H25C11.7452 231.196 1 220.451 1 207.196V79.1063C1 65.8515 11.7452 55.1063 25 55.1063H111.32Z"/>
</mask>
<path d="M248.895 33.1138L248.005 33.5694L248.895 33.1138ZM140.105 33.1138L139.215 32.6581L140.105 33.1138ZM140.995 33.5694C150.543 14.9152 170.896 2 194.5 2V0C170.167 0 149.114 13.317 139.215 32.6581L140.995 33.5694ZM194.5 2C218.104 2 238.457 14.9152 248.005 33.5694L249.785 32.6581C239.886 13.317 218.833 0 194.5 0V2ZM277.68 56.1063H364V54.1063H277.68V56.1063ZM387 79.1063V207.196H389V79.1063H387ZM364 230.196H25V232.196H364V230.196ZM2 207.196V79.1063H0V207.196H2ZM25 56.1063H111.32V54.1063H25V56.1063ZM2 79.1063C2 66.4038 12.2975 56.1063 25 56.1063V54.1063C11.1929 54.1063 0 65.2992 0 79.1063H2ZM387 207.196C387 219.898 376.703 230.196 364 230.196V232.196C377.807 232.196 389 221.003 389 207.196H387ZM364 56.1063C376.703 56.1063 387 66.4038 387 79.1063H389C389 65.2992 377.807 54.1063 364 54.1063V56.1063ZM248.005 33.5694C253.904 45.0939 264.272 56.1063 277.68 56.1063V54.1063C265.428 54.1063 255.578 43.975 249.785 32.6581L248.005 33.5694ZM25 230.196C12.2975 230.196 2 219.898 2 207.196H0C0 221.003 11.1929 232.196 25 232.196V230.196ZM139.215 32.6581C133.422 43.975 123.572 54.1063 111.32 54.1063V56.1063C124.728 56.1063 135.096 45.0939 140.995 33.5694L139.215 32.6581Z" fill="#344054" mask="url(#path-1-outside-1_107_4621)"/>
</svg>
