<svg width="621" height="490" viewBox="0 0 621 490" fill="none" xmlns="http://www.w3.org/2000/svg">
<path d="M365.471 32.2581L365.826 31.9058L365.822 31.9024L365.471 32.2581ZM358.02 24.4235L358.388 24.0847L358.388 24.0847L358.02 24.4235ZM410.317 49L410.288 49.4991L410.302 49.5H410.317V49ZM214.554 49V49.5H214.576L214.597 49.4981L214.554 49ZM255.807 32.2581L255.455 31.9024L255.452 31.9059L255.807 32.2581ZM263.26 24.4204L263.628 24.7593L263.628 24.7593L263.26 24.4204ZM267.189 20.1935L266.838 19.8377L266.832 19.8438L266.826 19.8501L267.189 20.1935ZM269.41 18L269.059 17.6442L269.059 17.6443L269.41 18ZM270.799 16.629L270.462 16.2592L270.455 16.2661L270.447 16.2733L270.799 16.629ZM350.479 16.629L350.83 16.2731L350.82 16.2637L350.479 16.629ZM351.867 18L351.516 18.3558L351.516 18.3558L351.867 18ZM355.437 21.6319L355.803 21.291L355.437 21.6319ZM365.822 31.9024C363.281 29.3928 360.858 26.7641 358.388 24.0847L357.653 24.7624C360.12 27.4389 362.559 30.085 365.119 32.6139L365.822 31.9024ZM410.347 48.5009C394.044 47.5427 378.071 44.2407 365.826 31.9059L365.116 32.6104C377.626 45.2123 393.911 48.5366 410.288 49.4991L410.347 48.5009ZM410.317 49.5H590V48.5H410.317V49.5ZM619.5 79V459H620.5V79H619.5ZM590 488.5H31V489.5H590V488.5ZM1.5 459V79H0.5V459H1.5ZM31 49.5H214.554V48.5H31V49.5ZM255.452 31.9059C244.104 43.3373 229.553 47.1973 214.511 48.5019L214.597 49.4981C229.742 48.1847 244.572 44.2851 256.161 32.6104L255.452 31.9059ZM262.893 24.0815C260.422 26.7621 257.997 29.3918 255.455 31.9024L256.158 32.6139C258.72 30.084 261.16 27.4369 263.628 24.7593L262.893 24.0815ZM266.826 19.8501C265.489 21.2654 264.184 22.6803 262.893 24.0815L263.628 24.7593C264.92 23.3574 266.22 21.947 267.553 20.5369L266.826 19.8501ZM269.059 17.6443C268.226 18.4669 267.671 19.0153 266.838 19.8377L267.541 20.5493C268.374 19.7268 268.929 19.1783 269.762 18.3557L269.059 17.6443ZM270.447 16.2733L269.059 17.6442L269.762 18.3558L271.15 16.9848L270.447 16.2733ZM310.778 0.5C295.375 0.5 281.098 6.5843 270.462 16.2592L271.135 16.9989C281.599 7.48023 295.64 1.5 310.778 1.5V0.5ZM350.82 16.2637C340.459 6.58368 326.179 0.5 310.778 0.5V1.5C325.916 1.5 339.954 7.48085 350.138 16.9944L350.82 16.2637ZM352.218 17.6442L350.83 16.2733L350.128 16.9848L351.516 18.3558L352.218 17.6442ZM353.051 18.4029C352.772 18.1597 352.495 17.9171 352.218 17.6442L351.516 18.3558C351.817 18.6533 352.117 18.9151 352.393 19.156L353.051 18.4029ZM358.388 24.0847C357.534 23.1581 356.674 22.2254 355.803 21.291L355.072 21.9728C355.94 22.9049 356.798 23.8355 357.653 24.7624L358.388 24.0847ZM352.393 19.156C353.356 19.9974 354.144 20.9777 355.072 21.9728L355.803 21.291C354.941 20.3656 354.065 19.2886 353.051 18.4029L352.393 19.156ZM1.5 79C1.5 62.7076 14.7076 49.5 31 49.5V48.5C14.1553 48.5 0.5 62.1553 0.5 79H1.5ZM31 488.5C14.7076 488.5 1.5 475.292 1.5 459H0.5C0.5 475.845 14.1553 489.5 31 489.5V488.5ZM619.5 459C619.5 475.292 606.292 488.5 590 488.5V489.5C606.845 489.5 620.5 475.845 620.5 459H619.5ZM590 49.5C606.292 49.5 619.5 62.7076 619.5 79H620.5C620.5 62.1553 606.845 48.5 590 48.5V49.5Z" fill="black"/>
</svg>
